PathFileType	4	(X/Y/Z)	Run_200 02
DataRate	CameraRate	NumFrames	NumMarkers	Units	OrigDataRate	OrigDataStartFrame	OrigNumFrames
120	120	6	42	mm	120	600	128
Frame#	Time	LASI			RASI			LPSI			RPSI			RTH1			RTH2			RTH3			LTH1			LTH2			LTH3			RTB1			RTB2			RTB3			LTB1			LTB2			LTB3			RCAL			RTOE			RMT5			LCAL			LTOE			LMT5			LACR			RACR			CLAV			C7			RUA1			RUA2			RUA3			RLEL			RMEL			LUA1			LUA2			LUA3			LLEL			LMEL			RFAsuperior			RFAradius			RFAulna			LFAsuperior			LFAradius			LFAulna		
		X1	Y1	Z1	X2	Y2	Z2	X3	Y3	Z3	X4	Y4	Z4	X5	Y5	Z5	X6	Y6	Z6	X7	Y7	Z7	X8	Y8	Z8	X9	Y9	Z9	X10	Y10	Z10	X11	Y11	Z11	X12	Y12	Z12	X13	Y13	Z13	X14	Y14	Z14	X15	Y15	Z15	X16	Y16	Z16	X17	Y17	Z17	X18	Y18	Z18	X19	Y19	Z19	X20	Y20	Z20	X21	Y21	Z21	X22	Y22	Z22	X23	Y23	Z23	X24	Y24	Z24	X25	Y25	Z25	X26	Y26	Z26	X27	Y27	Z27	X28	Y28	Z28	X29	Y29	Z29	X30	Y30	Z30	X31	Y31	Z31	X32	Y32	Z32	X33	Y33	Z33	X34	Y34	Z34	X35	Y35	Z35	X36	Y36	Z36	X37	Y37	Z37	X38	Y38	Z38	X39	Y39	Z39	X40	Y40	Z40	X41	Y41	Z41	X42	Y42	Z42	

600	  5.000000	995.487175	1094.954896	-436.462638	981.718695	1107.189990	-176.993460	814.194014	1143.930412	-351.126198	808.175049	1138.944593	-266.895490	939.373651	931.219822	-123.937276	1020.137059	834.929760	-131.252171	981.697179	713.557168	-175.008336	876.377563	893.234218	-485.684355	888.210875	760.548548	-470.071334	785.180006	674.658047	-451.990543	1117.516578	439.422858	-262.267734	1107.154985	369.010728	-194.029207	1131.640429	274.151080	-268.305023	715.779114	440.722840	-392.558500	634.362420	395.260217	-441.403653	573.994115	296.900399	-376.364270	1048.015640	 97.219847	-288.351128	1277.482641	134.920788	-301.553859	1220.154207	 83.641148	-214.138004	416.904644	284.854162	-365.773505	532.253764	 84.793379	-330.727516	466.228684	114.308414	-419.395931	1007.636694	1581.333003	-475.862272	932.432351	1587.206607	-147.110889	1010.177661	1527.338923	-264.654630	899.819413	1611.394148	-324.267785	856.893151	1526.274408	-79.142463	813.020645	1446.952017	-80.825529	743.675836	1486.894220	-84.803065	640.436784	1387.766681	-49.492960	636.713538	1386.279846	-132.260450	994.125652	1490.143115	-550.643567	992.490482	1418.003434	-538.303670	895.845752	1413.372778	-559.353031	885.131984	1246.427970	-598.268583	823.944484	1248.862939	-531.808575	711.254060	1307.872361	-35.104493	836.559314	1189.312744	-97.186023	788.333161	1156.557083	-52.692774	972.511432	1256.154788	-553.506551	1078.847132	1309.584307	-415.475494	1093.749195	1237.681880	-426.369913	
601	  5.008333	996.973155	1092.118656	-435.286574	981.941686	1103.630928	-175.654430	815.573176	1140.193188	-351.853420	808.870532	1134.494432	-267.657061	938.813523	927.489167	-123.729525	1021.039398	832.055353	-131.982790	982.424989	710.047697	-175.006075	880.234370	888.645129	-485.062782	893.284728	756.163759	-468.841614	791.197931	669.304195	-452.177963	1116.098874	434.931177	-262.338781	1104.633291	364.769456	-194.369948	1127.455175	269.518223	-268.209572	718.712731	437.117582	-392.636397	635.877270	394.545287	-441.634577	571.320766	298.914631	-376.848794	1040.630682	 96.552274	-289.043050	1270.439945	126.010510	-302.375781	1211.624707	 76.380347	-214.852205	414.162421	292.961446	-366.693517	521.986276	 88.621552	-331.919307	456.703633	120.535735	-420.204324	1007.124419	1578.472949	-474.568665	933.184472	1583.281931	-145.370023	1010.273233	1523.939209	-263.643168	899.512352	1607.946348	-322.649037	858.717202	1521.553972	-76.886091	815.574107	1441.847996	-77.811899	745.788173	1480.988198	-81.201087	644.161982	1380.727668	-44.257263	639.413689	1378.962206	-126.994511	993.239157	1487.878000	-549.823749	991.520185	1415.732426	-537.961003	894.614716	1411.616497	-558.309707	883.424033	1244.732922	-598.362969	822.130525	1247.194477	-531.881328	716.299277	1301.940946	-30.487306	843.107166	1185.685878	-93.857336	795.959163	1152.119938	-48.832781	970.824033	1253.138629	-553.675610	1077.930408	1303.783767	-415.093368	1091.823348	1231.833013	-426.471903	
602	  5.016667	998.227149	1088.704922	-434.359404	982.223316	1099.607084	-174.375072	816.770636	1135.628269	-352.656481	809.515453	1129.280085	-268.537369	938.658876	923.143328	-123.821136	1022.376673	828.916959	-133.787115	983.152407	705.828770	-175.139221	884.137881	883.266062	-484.372026	898.764531	750.933019	-467.598991	797.922378	662.993067	-452.339434	1114.102456	429.591557	-262.293968	1100.712540	359.564729	-194.784539	1121.731075	263.810832	-268.099961	722.401019	432.835087	-392.703776	638.171726	393.383763	-441.960530	569.278543	300.803741	-377.479738	1030.810710	 96.615235	-289.798753	1261.106643	114.505318	-302.959577	1200.209996	 68.056562	-215.151140	411.735689	300.794046	-367.609744	512.793599	 92.849325	-333.403375	448.123617	126.994672	-421.277801	1006.554896	1574.971544	-473.183130	934.019027	1578.583086	-143.457426	1010.253336	1519.791199	-262.680523	899.086956	1603.875379	-320.923544	860.771747	1515.844697	-74.438283	818.473300	1435.684404	-74.715659	748.208585	1473.945334	-77.137031	648.405991	1372.493387	-38.604830	642.536472	1370.417573	-121.287776	992.350845	1484.955760	-548.911770	990.501391	1412.768255	-537.614195	893.426102	1409.124438	-557.364938	881.799111	1242.368098	-598.762244	820.424138	1244.798573	-532.084504	722.022194	1295.008033	-25.536995	850.334589	1181.210281	-90.318816	804.388970	1146.822607	-44.673761	969.150497	1249.356410	-553.880917	1077.089740	1296.927790	-414.753102	1089.850506	1224.892587	-426.545243	
603	  5.025000	999.307559	1084.632781	-433.710282	982.582745	1095.115862	-173.402413	817.726880	1130.294714	-353.431987	809.995134	1123.545127	-269.414842	939.049354	918.274388	-124.047731	1023.698449	825.489392	-135.942941	983.822360	701.227267	-175.372753	888.076847	877.181466	-483.568611	904.507551	744.950090	-466.444123	805.154486	655.839655	-452.426810	1111.871513	423.962371	-262.412686	1096.008295	353.852566	-195.650776	1114.872146	257.611614	-268.617428	726.781739	427.951150	-392.855176	641.128774	391.925845	-442.435070	567.951901	302.572512	-378.291892	1018.959906	 97.203170	-290.638844	1250.019727	101.840249	-303.459212	1186.679083	 60.360554	-215.037555	409.690637	308.408398	-368.492049	505.041233	 97.552502	-335.341612	440.780193	133.762984	-422.742605	1005.970284	1570.854430	-471.779524	934.915589	1573.055994	-141.609459	1010.164420	1514.895713	-261.732739	898.468880	1599.183635	-319.094390	863.068595	1509.171919	-71.815910	821.740444	1428.494317	-71.527942	750.991611	1465.798401	-72.662462	653.194875	1363.118484	-32.576289	646.095306	1360.668117	-115.177592	991.443359	1481.375731	-547.844378	989.441684	1409.111574	-537.233758	892.305088	1405.876551	-556.494758	880.237947	1239.315400	-599.366396	818.886187	1241.642857	-532.432489	728.419888	1287.123719	-20.302460	858.205641	1175.906675	-86.590748	813.581768	1140.682602	-40.275326	967.500185	1244.790738	-554.085884	1076.293082	1289.054108	-414.438689	1087.821433	1216.897645	-426.600773	
604	  5.033333	1000.231585	1079.819793	-433.310982	982.903518	1090.251618	-172.979649	818.310096	1124.306738	-354.087221	810.096394	1117.634178	-270.160613	939.959083	913.369143	-124.077426	1024.604525	821.978265	-137.413167	984.538621	696.881830	-175.526547	892.143725	870.408802	-482.618286	910.420087	738.303776	-465.439688	812.722661	647.963928	-452.360185	1109.799554	418.884988	-262.952400	1091.355780	348.549182	-197.156799	1107.401879	252.046420	-270.344287	731.809838	422.601257	-393.115950	644.716507	390.315208	-443.038519	567.481559	304.221474	-379.263534	1005.507157	 98.008701	-291.544105	1237.563389	 90.292604	-304.269765	1171.880183	 54.938860	-214.845101	408.304046	315.885520	-369.379086	498.988691	102.709453	-337.775921	434.988782	140.862394	-424.647208	1005.377573	1566.151758	-470.429881	935.857715	1566.680632	-139.970637	1010.147171	1509.262802	-260.726642	897.535533	1593.922945	-317.196491	865.624018	1501.567825	-69.037570	825.405126	1420.315674	-68.190605	754.175338	1456.572279	-67.858771	658.548275	1352.638933	-26.211731	650.114326	1349.763946	-108.706372	990.485902	1477.132686	-546.659355	988.356007	1404.767813	-536.806068	891.249646	1401.884467	-555.682404	878.708533	1235.541269	-599.956004	817.486378	1237.704140	-532.867788	735.475829	1278.313862	-14.833345	866.706808	1169.805758	-82.674777	823.500251	1133.713718	-35.723889	965.882102	1239.425672	-554.292733	1075.515078	1280.193891	-414.148736	1085.769563	1207.941358	-426.785878	
605	  5.041667	1000.926979	1074.256710	-433.084988	982.956684	1085.245138	-173.162073	818.344832	1117.796644	-354.579047	809.599676	1111.816541	-270.710970	941.153684	909.142637	-123.634796	1025.014559	818.757064	-137.507677	985.498966	693.376287	-175.323094	896.407011	862.971128	-481.529887	916.442516	731.138996	-464.601389	820.549016	639.516499	-452.042556	1108.047294	415.071476	-263.976727	1087.377488	344.639571	-199.089111	1099.774153	248.253694	-273.247558	737.460053	417.039007	-393.395028	649.043120	388.655576	-443.640145	568.061141	305.790669	-380.308608	990.918469	 98.822666	-292.422589	1223.951991	 81.886013	-305.608719	1156.469231	 52.418097	-214.928912	408.029082	323.299705	-370.367309	494.715446	108.187747	-340.604660	431.017393	148.242085	-426.947871	1004.702484	1560.910871	-469.205662	936.830301	1559.536573	-138.434221	1010.317729	1502.942305	-259.667113	896.184818	1588.233892	-315.274833	868.457093	1493.073647	-66.091845	829.489289	1411.200824	-64.642677	757.769688	1446.308696	-62.790662	664.474093	1341.077257	-19.561527	654.627152	1337.765057	-101.922069	989.467941	1472.211159	-545.520911	987.260656	1399.740703	-536.345397	890.236968	1397.172149	-554.941100	877.189265	1231.028491	-600.348435	816.157013	1232.989728	-533.312215	743.171940	1268.585710	 -9.185482	875.831612	1162.943196	-78.600516	834.103189	1125.940093	-31.113526	964.299266	1233.253005	-554.533130	1074.747026	1270.363383	-413.891006	1083.766793	1198.144473	-427.335997	
